<svg width="429" height="326" viewBox="0 0 429 326" fill="none" xmlns="http://www.w3.org/2000/svg">
  <rect width="429" height="326" fill="white"/>
  <path d="M28.8609 281.618C31.3507 290.265 38.6206 296.317 46.204 301.459C47.2628 302.177 48.322 302.878 49.3815 303.563C49.3887 303.566 49.3961 303.573 49.4033 303.576C49.4543 303.609 49.5054 303.642 49.5529 303.675C49.7716 303.816 49.9903 303.957 50.2072 304.097L50.088 304.15C50.088 304.15 49.9711 304.213 50.099 304.16C50.1371 304.144 50.177 304.13 50.215 304.114C54.6205 302.335 59.1042 300.426 62.4804 297.094C65.9826 293.634 68.0293 288.207 66.1329 283.661C65.8836 283.066 65.5688 282.5 65.1942 281.974C65.0403 281.754 64.8747 281.543 64.7022 281.336C63.6561 280.058 62.2888 279.082 60.741 278.508C59.1931 277.935 57.5206 277.784 55.8952 278.072C54.2699 278.36 52.7505 279.076 51.4933 280.146C50.2361 281.217 49.2864 282.603 48.7418 284.163C48.1847 278.97 52.462 274.621 56.5784 271.411C60.6965 268.203 65.3759 264.71 66.172 259.546C66.6166 256.673 65.6185 253.889 63.8004 251.653C63.7441 251.586 63.6879 251.518 63.63 251.452C61.4168 248.848 58.304 247.177 54.9133 246.771C48.5987 246.114 42.465 249.459 37.8776 253.854C30.4941 260.926 26.0305 271.787 28.8609 281.618Z" fill="#027162"/>
  <path d="M40.7301 270.309C39.5182 272.196 38.5878 274.251 37.9681 276.407C37.4441 278.334 37.2109 280.329 37.2762 282.325C37.4452 286.433 38.5973 290.44 40.6354 294.01C42.1707 296.718 44.0417 299.22 46.204 301.459C47.2628 302.177 48.322 302.878 49.3815 303.563C49.3887 303.566 49.3961 303.573 49.4033 303.576C49.4543 303.609 49.5054 303.642 49.5529 303.675C49.7716 303.816 49.9903 303.957 50.2072 304.097C50.2072 304.097 49.9711 304.212 50.0991 304.16C50.1371 304.144 50.177 304.13 50.215 304.114C49.8202 300.873 50.207 297.585 51.3431 294.525C52.4791 291.465 54.3313 288.722 56.7444 286.526C59.1634 284.364 62.0587 282.804 65.1942 281.974C65.0403 281.754 64.8747 281.543 64.7022 281.336C63.4912 281.676 62.3126 282.123 61.1801 282.67C57.1321 284.616 53.8175 287.815 51.7269 291.794C49.851 295.406 49.0436 299.48 49.3996 303.536C49.2186 303.372 49.0374 303.204 48.8616 303.038C45.5139 299.913 42.5405 296.327 40.5282 292.188C38.7824 288.683 37.9243 284.802 38.0296 280.887C38.1939 276.618 39.893 272.664 42.3531 269.222C45.0494 265.549 48.2347 262.263 51.8205 259.455C55.4341 256.557 59.3884 254.114 63.5951 252.178C63.6899 252.133 63.7642 252.054 63.8024 251.957C63.8406 251.859 63.8399 251.751 63.8004 251.653C63.7724 251.566 63.7111 251.494 63.6299 251.452C63.5882 251.434 63.5429 251.425 63.4975 251.427C63.452 251.429 63.4076 251.441 63.3676 251.463C62.8482 251.702 62.3324 251.945 61.8208 252.198C57.5592 254.306 53.5759 256.937 49.9623 260.028C46.4717 263.008 43.1855 266.411 40.7301 270.309Z" fill="white"/>
  <path d="M140.422 297.594H147.038L150.185 272.049L140.421 272.049L140.422 297.594Z" fill="#FFB7B7"/>
  <path d="M138.735 295.431L151.764 295.431H151.764C153.966 295.431 156.078 296.307 157.635 297.865C159.192 299.424 160.067 301.538 160.067 303.742V304.013L138.735 304.013L138.735 295.431Z" fill="#2F2E41"/>
  <path d="M104.602 297.594H111.218L114.365 272.049L104.601 272.049L104.602 297.594Z" fill="#FFB7B7"/>
  <path d="M102.914 295.431L115.943 295.431H115.944C118.146 295.431 120.258 296.307 121.815 297.865C123.372 299.424 124.247 301.538 124.247 303.742V304.013L102.915 304.013L102.914 295.431Z" fill="#2F2E41"/>
  <path d="M101.907 181.819V249.266L103.612 292.807H117.684L122.375 210.847L131.757 244.57L137.727 291.953L154.784 291.099L143.271 181.819H101.907Z" fill="#2F2E41"/>
  <path d="M118.265 121.203C123.918 121.203 128.5 116.616 128.5 110.958C128.5 105.3 123.918 100.713 118.265 100.713C112.613 100.713 108.031 105.3 108.031 110.958C108.031 116.616 112.613 121.203 118.265 121.203Z" fill="#FFB8B8"/>
  <path d="M114.013 123.872L111.288 126.752L108.729 184.381L139.006 183.527L131.757 133.156L125.361 127.02L122.115 123.872H114.013Z" fill="#027162"/>
  <path d="M109.156 130.167L111.454 126.433L112.141 134.436C112.141 134.436 117.684 152.365 117.258 168.159C116.832 183.954 119.39 221.092 115.979 221.518C112.567 221.945 98.0686 222.799 98.0686 219.811C98.0686 216.823 97.2157 137.424 97.2157 137.424L109.156 130.167Z" fill="#2F2E41"/>
  <path d="M124.673 126.433L130.477 131.021L143.27 135.717C143.27 135.717 143.27 190.357 145.829 203.163C148.388 215.969 153.078 217.25 147.108 217.677C141.138 218.103 141.565 215.969 141.565 215.969C141.565 215.969 124.081 161.329 124.934 147.669C125.787 134.009 123.821 126.433 124.673 126.433Z" fill="#2F2E41"/>
  <path d="M108.583 114.163C108.583 114.163 109.453 112.635 109.25 107.528C109.048 102.421 116.816 105.309 123.308 104.822C129.799 104.335 128.425 113.348 128.425 113.348C128.425 113.348 128.893 112.812 129.896 108.462C130.898 104.112 128.622 99.7777 128.622 99.7777C127.951 95.2067 124.338 96.6717 124.338 96.6717C126.078 97.3498 125.744 98.7998 125.744 98.7998C124.271 96.2146 120.658 97.6796 120.658 97.6796C115.839 94.6524 110.954 98.6389 110.954 98.6389C105.133 99.9615 108.547 104.596 108.547 104.596C102.692 107.558 108.583 114.163 108.583 114.163Z" fill="#2F2E41"/>
  <path d="M98.0829 213.639C98.5166 213.18 98.8447 212.631 99.0438 212.032C99.2428 211.432 99.3082 210.796 99.2352 210.168C99.1622 209.541 98.9527 208.937 98.6213 208.399C98.29 207.862 97.8448 207.403 97.3173 207.056L99.1609 197.355L93.5446 194.795L91.1333 208.532C90.6099 209.458 90.4439 210.544 90.6667 211.584C90.8896 212.624 91.4858 213.546 92.3424 214.175C93.1991 214.805 94.2566 215.098 95.3146 214.999C96.3726 214.9 97.3575 214.416 98.0829 213.639Z" fill="#FFB7B7"/>
  <path d="M99.3479 137.424L98.2156 136.816C98.2156 136.816 92.0985 139.132 92.525 140.839C92.9514 142.547 89.1135 202.309 90.3928 204.443C91.6721 206.578 101.906 204.87 101.906 204.87L99.3479 137.424Z" fill="#2F2E41"/>
  <path d="M148.029 209.615C147.536 209.221 147.135 208.723 146.855 208.157C146.575 207.59 146.422 206.97 146.408 206.338C146.393 205.706 146.518 205.079 146.771 204.501C147.025 203.922 147.403 203.407 147.877 202.99L144.71 193.637L149.919 190.324L154.206 203.595C154.852 204.44 155.167 205.492 155.09 206.553C155.013 207.614 154.55 208.61 153.788 209.352C153.027 210.094 152.02 210.53 150.958 210.579C149.897 210.627 148.855 210.284 148.029 209.615Z" fill="#FFB7B7"/>
  <path d="M143.03 201.461C143.03 201.461 153.402 201.734 154.374 199.443C155.346 197.152 143.285 138.496 143.471 136.746C143.657 134.996 137.279 133.55 137.279 133.55L136.242 134.309L143.03 201.461Z" fill="#2F2E41"/>
  <path d="M211.258 305H23.4928C23.3621 305 23.2368 304.948 23.1443 304.856C23.0519 304.763 23 304.638 23 304.507C23 304.376 23.0519 304.25 23.1443 304.158C23.2368 304.065 23.3621 304.013 23.4928 304.013H211.258C211.389 304.013 211.514 304.065 211.606 304.158C211.699 304.25 211.751 304.376 211.751 304.507C211.751 304.638 211.699 304.763 211.606 304.856C211.514 304.948 211.389 305 211.258 305Z" fill="#CBCBCB"/>
  <path d="M404 160.947H230.695V52.9409H404V160.947ZM234.728 156.91H399.968V56.9774H234.728V156.91Z" fill="#027162"/>
  <path d="M401.984 54.9592H232.711V158.928H401.984V54.9592Z" fill="white"/>
  <path d="M401.984 81.3096V74.926H378.502V54.9592H372.125V74.926H330.32V54.9592H323.943V74.926H259.463V54.9592H253.086V74.926H232.711V81.3096H253.086V106.135H232.711V112.519H253.086V139.118H232.711V145.501H287.452V158.928H293.829V145.501H323.943V158.928H330.32V145.501H401.984V139.118H330.32V112.519H401.984V106.135H378.502V81.3096L401.984 81.3096ZM323.943 81.3096V89.1119H259.463V81.3096H323.943ZM259.463 95.4956H323.943V106.135H259.463V95.4956ZM259.463 139.118V112.519H287.452V139.118L259.463 139.118ZM323.943 139.118H293.829V112.519H323.943V139.118ZM372.125 106.135H330.32V81.3096H372.125V106.135Z" fill="#CBCBCB"/>
  <path d="M357.896 39.61C357.896 56.5155 327.317 94.1758 327.317 94.1758C327.317 94.1758 296.739 56.5155 296.739 39.61C296.739 31.4918 299.961 23.706 305.695 17.9655C311.43 12.225 319.207 9 327.317 9C335.427 9 343.205 12.225 348.939 17.9655C354.674 23.706 357.896 31.4918 357.896 39.61Z" fill="#027162"/>
  <path d="M341.296 38.2792C341.296 41.0468 340.476 43.7522 338.94 46.0534C337.405 48.3545 335.221 50.1481 332.667 51.2072C330.113 52.2663 327.302 52.5434 324.591 52.0035C321.879 51.4636 319.388 50.1308 317.433 48.1739C315.478 46.2169 314.147 43.7235 313.608 41.0091C313.068 38.2947 313.345 35.4811 314.403 32.9242C315.461 30.3673 317.253 28.1819 319.552 26.6443C321.85 25.1067 324.553 24.286 327.318 24.286C329.154 24.2852 330.972 24.6465 332.668 25.3495C334.364 26.0524 335.906 27.0831 337.204 28.3826C338.502 29.6822 339.532 31.2251 340.234 32.9232C340.936 34.6213 341.297 36.4413 341.296 38.2792Z" fill="white"/>
  <path d="M327.317 116.268C331.87 116.268 335.56 112.574 335.56 108.017C335.56 103.46 331.87 99.7654 327.317 99.7654C322.765 99.7654 319.074 103.46 319.074 108.017C319.074 112.574 322.765 116.268 327.317 116.268Z" fill="#027162"/>
</svg>
